<?xml version="1.0" encoding="UTF-8"?>
<svg width="36px" height="36px" viewBox="0 0 36 36" version="1.1" xmlns="http://www.w3.org/2000/svg" xmlns:xlink="http://www.w3.org/1999/xlink">
    <g id="Page-1" stroke="none" stroke-width="1" fill="none" fill-rule="evenodd">
        <g id="Content" transform="translate(-1293.000000, -1292.000000)">
            <g id="google-plus" transform="translate(1293.000000, 1292.000000)">
                <circle id="Oval" fill="#DC4E41" cx="18" cy="18" r="18"></circle>
                <g id="Group" transform="translate(6.000000, 11.000000)">
                    <path d="M0.169168142,7.45515789 C0.105769912,10.5031579 2.22371681,13.4118947 5.13716814,14.3605263 C7.88145133,15.2744211 11.2555752,14.5907368 13.0816991,12.2611579 C14.4149735,10.6288421 14.7179469,8.45273684 14.5736283,6.41968421 C12.2234336,6.39884211 9.87323894,6.40578947 7.52654867,6.40926316 C7.52272566,7.23915789 7.52654867,8.06589474 7.5300531,8.89578947 C8.93723894,8.93431579 10.3447434,8.91663158 11.7519292,8.94473684 C11.396708,10.1513684 10.5875044,11.2743158 9.35936283,11.7101053 C6.98814159,12.7458947 3.96254867,11.3927368 3.21642478,8.92705263 C2.31578761,6.56589474 3.79019469,3.71652632 6.22449558,3.02968421 C7.7339469,2.50326316 9.28895575,3.096 10.5804956,3.87378947 C11.2348673,3.26684211 11.8471858,2.61821053 12.4486726,1.96263158 C10.9812743,0.745578947 9.09557522,-0.000631578947 7.15699115,0.163263158 C3.35341593,0.208105263 0.0248495575,3.68873684 0.169168142,7.45515789 Z" id="Shape" fill="#DC4E41"></path>
                    <path d="M19.1475398,4.31621053 C19.140531,5.01031579 19.1332035,5.70789474 19.1296991,6.40168421 C18.4259469,6.40863158 17.7260177,6.41210526 17.0257699,6.41557895 L17.0257699,8.49410526 C17.7260177,8.49757895 18.4297699,8.50105263 19.1296991,8.50831579 C19.136708,9.20242105 19.136708,9.89621053 19.1437168,10.5937895 C19.8404602,10.5937895 20.540708,10.5903158 21.2406372,10.5937895 C21.2444602,9.89621053 21.247646,9.20242105 21.2549735,8.50484211 C21.9549027,8.50136842 22.6586549,8.49789474 23.3589027,8.49442105 L23.3589027,6.41589474 C22.6589735,6.41242105 21.9552212,6.40894737 21.2549735,6.402 C21.2511504,5.70789474 21.2444602,5.01031579 21.2406372,4.31652632 C20.540708,4.31621053 19.8439646,4.31621053 19.1475398,4.31621053 Z" id="Shape" fill="#DC4E41"></path>
                    <g id="Shape" fill="#FFFFFF">
                        <path d="M0.169168142,7.45515789 C0.0248495575,3.68873684 3.35309735,0.208105263 7.15667257,0.162947368 C9.09525664,-0.000947368421 10.9812743,0.745263158 12.448354,1.96231579 C11.8465487,2.61821053 11.2342301,3.26652632 10.580177,3.87347368 C9.28863717,3.09568421 7.73362832,2.50294737 6.22417699,3.02936842 C3.78955752,3.71652632 2.31515044,6.56589474 3.21610619,8.92673684 C3.96223009,11.3924211 6.98782301,12.7455789 9.35904425,11.7097895 C10.5868673,11.274 11.3963894,10.1510526 11.7516106,8.94442105 C10.3444248,8.91663158 8.93692035,8.934 7.52973451,8.89547368 C7.52623009,8.06557895 7.52272566,7.23884211 7.52623009,6.40894737 C9.87292035,6.40547368 12.223115,6.39852632 14.5733097,6.41936842 C14.7176283,8.45273684 14.4149735,10.6288421 13.0813805,12.2608421 C11.2552566,14.5904211 7.88145133,15.2741053 5.13684956,14.3602105 C2.2240354,13.4118947 0.105769912,10.5031579 0.169168142,7.45515789 Z"></path>
                        <path d="M19.1475398,4.31621053 L21.2406372,4.31621053 C21.2444602,5.01031579 21.2511504,5.70789474 21.2549735,6.40168421 C21.9549027,6.40863158 22.6586549,6.41210526 23.3589027,6.41557895 L23.3589027,8.49410526 C22.6589735,8.49757895 21.9552212,8.50105263 21.2549735,8.50452632 C21.2479646,9.20210526 21.2444602,9.89589474 21.2406372,10.5934737 C20.540708,10.59 19.8401416,10.5934737 19.1437168,10.5934737 C19.1370265,9.89589474 19.1370265,9.20210526 19.1296991,8.508 C18.4297699,8.50073684 17.7260177,8.49757895 17.0257699,8.49378947 L17.0257699,6.41526316 C17.7260177,6.41178947 18.4262655,6.40831579 19.1296991,6.40136842 C19.1332035,5.70789474 19.1402124,5.01031579 19.1475398,4.31621053 Z"></path>
                    </g>
                </g>
            </g>
        </g>
    </g>
</svg>