<?xml version="1.0" encoding="UTF-8"?>
<svg width="36px" height="36px" viewBox="0 0 36 36" version="1.1" xmlns="http://www.w3.org/2000/svg" xmlns:xlink="http://www.w3.org/1999/xlink">
    <g id="Page-1" stroke="none" stroke-width="1" fill="none" fill-rule="evenodd">
        <g id="Content" transform="translate(-1360.000000, -1292.000000)">
            <g id="twitter" transform="translate(1360.000000, 1292.000000)">
                <circle id="Oval" fill="#55ACEE" cx="18" cy="18" r="18"></circle>
                <path d="M28.8220177,12.0032566 C28.0561416,12.3428673 27.2322832,12.5725664 26.3682832,12.6751504 C27.2504425,12.1466195 27.9274336,11.3103363 28.2469735,10.3122124 C27.4215221,10.8018761 26.5068673,11.1570973 25.5342301,11.3485664 C24.7549735,10.5186549 23.644708,10 22.415292,10 C20.0564956,10 18.1433982,11.9130973 18.1433982,14.2718938 C18.1433982,14.6067257 18.1813097,14.9326372 18.2545841,15.2454867 C14.7042832,15.0673982 11.556354,13.3667965 9.44923894,10.7814867 C9.08159292,11.4122832 8.87069027,12.1466195 8.87069027,12.9293805 C8.87069027,14.411115 9.62541593,15.7192212 10.7710442,16.4850973 C10.071115,16.463115 9.4119646,16.2710088 8.83628319,15.9501947 C8.8359646,15.968354 8.8359646,15.9865133 8.8359646,16.004354 C8.8359646,18.0741947 10.3090973,19.8006018 12.2629735,20.1927788 C11.904885,20.2909027 11.5267257,20.3428319 11.1377345,20.3428319 C10.8618407,20.3428319 10.5945487,20.3163894 10.3339469,20.2666903 C10.8774513,21.963469 12.4547611,23.1986195 14.324531,23.2333451 C12.8622301,24.379292 11.0204956,25.0620177 9.01851327,25.0620177 C8.67444248,25.0620177 8.33355752,25.0419469 8,25.0021239 C9.88952212,26.2146549 12.1355398,26.9215929 14.5478584,26.9215929 C22.4054159,26.9215929 26.7024779,20.4122832 26.7024779,14.7666549 C26.7024779,14.5815575 26.6983363,14.3970973 26.6900531,14.2142301 C27.5253805,13.6121062 28.2495221,12.8599292 28.8220177,12.0032566 L28.8220177,12.0032566 Z" id="Shape" fill="#F1F2F2"></path>
            </g>
        </g>
    </g>
</svg>